<svg width="226" height="117" viewBox="0 0 226 117" fill="none" xmlns="http://www.w3.org/2000/svg">
<path d="M113.586 28.8741L113.58 28.914L113.564 29.0292L111.887 41.0752L101.619 44.8466L101.459 44.7696L95.7102 42.0366L92.7379 30.6192L92.5342 29.8354L92.5962 29.8116L105.313 25.0287L113.578 28.8695L113.586 28.8741Z" fill="#719663"/>
<path d="M101.459 44.7695L95.7102 42.0365L92.5342 29.8354L92.5962 29.8115L100.881 33.3107L101.459 44.7695Z" fill="#719663"/>
<path opacity="0.2" d="M101.603 44.6303L97.2302 36.2417L97.7918 33.8636L95.147 30.7457L94.9218 30.9372L97.4698 33.941L95.5665 42.0024L95.8541 42.0707L97.1263 36.6819L101.341 44.7671L101.603 44.6303Z" fill="black"/>
<path d="M113.586 29.0219L113.564 29.0292L100.881 33.4588L92.7379 30.6192L92.5342 29.8354L92.5962 29.8116L105.313 25.0287L113.578 28.8695L113.58 28.914L113.586 29.0219Z" fill="#3F3D56"/>
<path d="M101.102 33.6804L98.5171 31.684L99.108 29.4655L106.494 26.8033L111.517 27.0991L113.512 28.8L113.659 29.2435L101.102 33.6804Z" fill="#719663"/>
<path d="M92.6818 29.8354L98.5171 29.6134L101.678 28.5393L106.607 26.8034L107.529 25.4725L105.229 25.0603L92.6818 29.8354Z" fill="#719663"/>
<path d="M104.308 27.4555L101.265 28.5244L101.363 28.8034L104.406 27.7345L104.308 27.4555Z" fill="#CCCCCC"/>
<path d="M64.2317 10.1596L62.8053 17.2993L69.4617 22.2973L72.5524 13.0154L64.2317 10.1596Z" fill="#9F616A"/>
<path d="M69.5806 16.7044C73.1256 16.7044 75.9994 13.8275 75.9994 10.2786C75.9994 6.72968 73.1256 3.85272 69.5806 3.85272C66.0357 3.85272 63.1619 6.72968 63.1619 10.2786C63.1619 13.8275 66.0357 16.7044 69.5806 16.7044Z" fill="#9F616A"/>
<path d="M55.6734 58.9662C55.7028 61.0394 64.7221 84.1126 63.4698 87.117C61.4958 89.1371 57.2497 99.8891 55.4356 102.757C55.198 102.757 54.0093 106.327 54.0093 106.327C54.0093 106.327 56.8621 110.849 59.9526 108.945C63.8386 99.7953 73.5706 94.6921 73.7426 82.7665C74.2123 86.5338 75.599 110.715 75.599 110.715C75.599 110.715 75.333 110.828 81.3203 111.402C82.2498 97.3678 86.0485 73.4907 77.5443 58.49C74.9296 57.3003 55.6734 58.9662 55.6734 58.9662Z" fill="#2F2E41"/>
<path d="M75.5986 110.244C75.3206 110.779 73.3275 115.718 75.1413 116.214C77.233 116.785 79.2606 115.985 79.2606 115.985C79.2606 115.985 82.9223 117.13 85.1632 115.674C86.209 114.627 85.9713 113.675 85.4722 112.985C85.2186 112.645 84.8939 112.365 84.5208 112.164C84.1477 111.962 83.7352 111.845 83.3121 111.82C82.1749 111.738 81.8138 111.527 81.6836 111.006C81.4934 110.244 75.5986 110.244 75.5986 110.244Z" fill="#2F2E41"/>
<path d="M56.0378 105.932C56.0378 105.932 50.9283 107.547 52.004 109.431C52.7026 110.599 53.7227 111.541 54.9421 112.144C54.9421 112.144 56.0077 116.542 58.9658 116.542C60.4449 116.542 60.9491 115.7 61.0836 114.859C61.1444 114.439 61.1129 114.011 60.9913 113.605C60.8697 113.198 60.6609 112.823 60.3795 112.506C59.6327 111.643 59.5264 111.239 59.8027 110.777C60.2061 110.104 56.0378 105.932 56.0378 105.932Z" fill="#2F2E41"/>
<path d="M78.7343 59.663C78.7343 59.663 77.7822 61.5668 73.9787 60.852C70.1752 60.1395 55.199 60.852 55.199 60.852C55.199 60.852 56.0298 43.8362 54.128 33.6019C52.2262 23.3677 59.7143 17.5369 59.7143 17.5369L62.0921 15.1564C64.4698 14.9204 69.4909 22.3069 69.4909 22.3069C71.1432 22.5841 72.6857 29.6154 74.0016 36.2687C74.0794 36.649 74.1526 37.0248 74.2259 37.4005C74.8323 40.5026 75.6768 43.9553 76.1825 47.0551C76.2192 47.2751 76.2535 47.4927 76.2855 47.7104C76.8868 51.7357 77.7042 55.7257 78.7343 59.663V59.663Z" fill="#E6E6E6"/>
<path d="M62.0716 6.2774C62.0716 6.2774 60.8715 3.63429 63.9917 2.43287C63.9917 2.43287 66.6319 -1.89223 71.9122 0.991172C71.9122 0.991172 75.5125 2.43287 75.5125 6.2774C75.5125 10.1219 76.7126 10.8428 76.7126 10.8428C76.7126 10.8428 74.9254 9.00731 74.4454 7.56562C73.9654 6.12393 70.2321 5.79684 68.792 7.23854C67.352 8.68024 63.7517 8.43995 63.7517 8.43995L63.9917 13.7262C63.9917 13.7262 62.7917 10.6025 62.3116 10.6025C61.8316 10.6025 61.3516 6.2774 62.0716 6.2774Z" fill="#2F2E41"/>
<path opacity="0.2" d="M76.1825 47.0551C70.5116 43.969 61.3254 37.2012 58.3618 33.54C54.4552 28.7173 58.7165 25.0516 58.7165 25.0516C63.5476 21.9999 69.3238 32.4701 69.3238 32.4701L74.0016 36.2687C74.0794 36.649 74.1526 37.0248 74.2259 37.4005C74.8323 40.5026 75.6768 43.9553 76.1825 47.0551Z" fill="black"/>
<path d="M93.1116 43.4988C93.1116 43.4988 101.543 46.9252 102.93 43.0735C104.318 39.2217 96.2738 39.2878 96.2738 39.2878L93.1159 39.7358L93.1116 43.4988Z" fill="#9F616A"/>
<path d="M57.6358 23.4843C57.6358 23.4843 53.3766 27.1522 57.2804 31.9733C61.1841 36.7944 79.1246 47.0954 79.1246 47.0954L90.8107 43.9327L94.1178 44.5386L94.7413 38.3228L89.8693 38.7989L77.5018 36.1626L69.6155 29.7565C69.6155 29.7565 62.4656 20.4342 57.6358 23.4843Z" fill="#E6E6E6"/>
<path opacity="0.2" d="M73.152 67.6699L73.8971 85.1007L72.0077 67.6699H73.152Z" fill="black"/>
<path d="M138.844 49.8988L138.747 49.8727L140.755 42.3337L138.455 39.2987L138.536 39.2377L140.865 42.3119L138.844 49.8988Z" fill="#CCCCCC"/>
<path d="M139.978 45.5949L139.887 45.6386L143.081 52.2774L143.172 52.2337L139.978 45.5949Z" fill="#CCCCCC"/>
<path d="M140.159 49.5675L140.069 49.6112L143.263 56.25L143.353 56.2062L140.159 49.5675Z" fill="#CCCCCC"/>
<path d="M207.509 99.498C208.4 99.498 209.121 98.7756 209.121 97.8846C209.121 96.9935 208.4 96.2711 207.509 96.2711C206.619 96.2711 205.898 96.9935 205.898 97.8846C205.898 98.7756 206.619 99.498 207.509 99.498Z" fill="#E6E6E6"/>
<path d="M203.547 98.7173L199.87 99.3727L199.888 99.472L203.565 98.8166L203.547 98.7173Z" fill="white"/>
<path d="M197.888 114.587L197.791 114.561L199.799 107.021L197.499 103.986L197.58 103.926L199.909 107L197.888 114.587Z" fill="#CCCCCC"/>
<path d="M199.022 110.283L198.931 110.326L202.125 116.965L202.216 116.921L199.022 110.283Z" fill="#CCCCCC"/>
<path d="M225.841 108.962H217.602V110.795H225.841V108.962Z" fill="#F2F2F2"/>
<path d="M34.1737 101.027L34.1677 101.067L34.1515 101.183L32.4747 113.229L22.2074 117L22.0465 116.923L16.2982 114.19L13.3259 102.772L13.1222 101.989L13.1842 101.965L25.9007 97.1821L34.1661 101.023L34.1737 101.027Z" fill="#719663"/>
<path d="M22.0465 116.923L16.2982 114.19L13.1222 101.989L13.1842 101.965L21.4689 105.464L22.0465 116.923Z" fill="#719663"/>
<path opacity="0.2" d="M22.1907 116.784L17.8183 108.395L18.3799 106.017L15.735 102.899L15.5098 103.09L18.0579 106.094L16.1545 114.156L16.4422 114.224L17.7144 108.835L21.9287 116.921L22.1907 116.784Z" fill="black"/>
<path d="M34.1737 101.175L34.1515 101.183L21.4689 105.612L13.3259 102.772L13.1222 101.989L13.1842 101.965L25.9007 97.1821L34.1661 101.023L34.1677 101.067L34.1737 101.175Z" fill="#3F3D56"/>
<path d="M21.6905 105.834L19.1051 103.837L19.696 101.619L27.0825 98.9568L32.1053 99.2526L34.0998 100.953L34.2474 101.397L21.6905 105.834Z" fill="#719663"/>
<path d="M13.2698 101.989L19.1051 101.767L22.2663 100.693L27.1948 98.9568L28.1167 97.6257L25.8167 97.2137L13.2698 101.989Z" fill="#719663"/>
<path d="M24.8958 99.6088L21.8532 100.678L21.951 100.957L24.9936 99.8878L24.8958 99.6088Z" fill="#CCCCCC"/>
<path d="M8.23871 116.338H2.05968L1.14426 104.424H9.15412L8.23871 116.338Z" fill="#719663"/>
<path d="M9.26855 109.236H1.02984V111.068H9.26855V109.236Z" fill="#E6E6E6"/>
<path d="M9.61183 103.737H8.23871L8.08606 103.279H1.98347L1.83082 103.737H0.457706L0 105.112H10.0695L9.61183 103.737Z" fill="#3F3D56"/>
<path d="M184.991 116.197H46.2839V116.656H184.991V116.197Z" fill="#3F3D56"/>
</svg>